<svg xmlns="http://www.w3.org/2000/svg" xmlns:xlink="http://www.w3.org/1999/xlink" width="500" zoomAndPan="magnify" viewBox="0 0 375 374.999991" height="500" preserveAspectRatio="xMidYMid meet" version="1.0"><defs><clipPath id="aa59c1f2b4"><path d="M 43.40625 24 L 331.59375 24 L 331.59375 352 L 43.40625 352 Z M 43.40625 24 " clip-rule="nonzero"/></clipPath><clipPath id="b9dab34d40"><path d="M 71.796875 139 L 139 139 L 139 278 L 71.796875 278 Z M 71.796875 139 " clip-rule="nonzero"/></clipPath><clipPath id="b5ce23d4df"><path d="M 146 96.210938 L 211.773438 96.210938 L 211.773438 152 L 146 152 Z M 146 96.210938 " clip-rule="nonzero"/></clipPath><clipPath id="aa14124010"><path d="M 184 132 L 211.773438 132 L 211.773438 251 L 184 251 Z M 184 132 " clip-rule="nonzero"/></clipPath></defs><g clip-path="url(#aa59c1f2b4)"><path fill="#d62b31" d="M 321.722656 170.234375 L 74.027344 27.238281 C 67.734375 23.609375 60.003906 23.609375 53.71875 27.238281 C 47.433594 30.863281 43.5625 37.566406 43.5625 44.824219 L 43.5625 330.847656 C 43.5625 338.105469 47.433594 344.8125 53.71875 348.433594 C 56.859375 350.273438 60.367188 351.15625 63.875 351.15625 C 67.378906 351.15625 70.886719 350.246094 74.027344 348.433594 L 321.722656 205.4375 C 328.019531 201.804688 331.871094 195.101562 331.871094 187.84375 C 331.871094 180.582031 328.007812 173.871094 321.722656 170.234375 Z M 321.722656 170.234375 " fill-opacity="1" fill-rule="nonzero"/></g><g clip-path="url(#b9dab34d40)"><path fill="#eeedde" d="M 75.695312 238.335938 L 134.949219 272.269531 L 135.039062 178.464844 L 75.695312 144.957031 Z M 136.851562 277.46875 C 136.527344 277.46875 136.199219 277.386719 135.90625 277.214844 L 72.839844 241.097656 C 72.246094 240.757812 71.878906 240.128906 71.878906 239.441406 L 71.878906 141.6875 C 71.878906 141.011719 72.242188 140.382812 72.828125 140.042969 C 73.414062 139.699219 74.136719 139.695312 74.726562 140.027344 L 137.890625 175.691406 C 138.488281 176.03125 138.859375 176.664062 138.859375 177.355469 L 138.761719 275.5625 C 138.761719 276.242188 138.398438 276.871094 137.808594 277.210938 C 137.511719 277.382812 137.183594 277.46875 136.851562 277.46875 " fill-opacity="1" fill-rule="nonzero"/></g><path fill="#eeedde" d="M 146.789062 180.488281 C 143.851562 180.488281 140.457031 180.0625 136.546875 179.21875 C 135.515625 178.996094 134.863281 177.980469 135.085938 176.949219 C 135.308594 175.921875 136.320312 175.265625 137.351562 175.488281 C 146.042969 177.363281 151.820312 177.003906 155.023438 174.386719 C 157.421875 172.425781 158.636719 168.949219 158.722656 163.78125 L 97.664062 128.527344 C 96.75 128 96.4375 126.835938 96.964844 125.921875 C 97.492188 125.007812 98.660156 124.695312 99.570312 125.222656 L 161.585938 161.027344 C 162.167969 161.363281 162.53125 161.984375 162.539062 162.65625 C 162.628906 169.660156 160.957031 174.460938 157.4375 177.339844 C 154.863281 179.445312 151.386719 180.488281 146.789062 180.488281 " fill-opacity="1" fill-rule="nonzero"/><path fill="#eeedde" d="M 147.199219 278.769531 C 144.152344 278.769531 140.589844 278.320312 136.449219 277.425781 C 135.421875 277.203125 134.765625 276.1875 134.988281 275.15625 C 135.210938 274.128906 136.226562 273.476562 137.253906 273.695312 C 146.226562 275.636719 152.105469 275.335938 155.226562 272.789062 C 157.648438 270.808594 158.792969 267.148438 158.722656 261.597656 L 158.722656 162.679688 C 158.722656 161.625 159.578125 160.773438 160.632812 160.773438 C 161.683594 160.773438 162.539062 161.625 162.539062 162.679688 L 162.539062 261.570312 C 162.625 268.335938 161.023438 272.980469 157.640625 275.742188 C 155.164062 277.765625 151.757812 278.769531 147.199219 278.769531 " fill-opacity="1" fill-rule="nonzero"/><path fill="#eeedde" d="M 148.742188 171.566406 C 148.421875 171.566406 148.09375 171.484375 147.796875 171.3125 L 90.078125 138.25 C 89.160156 137.726562 88.84375 136.558594 89.367188 135.644531 C 89.894531 134.730469 91.058594 134.414062 91.972656 134.9375 L 149.691406 168 C 150.605469 168.523438 150.921875 169.691406 150.398438 170.605469 C 150.046875 171.21875 149.40625 171.566406 148.742188 171.566406 " fill-opacity="1" fill-rule="nonzero"/><path fill="#eeedde" d="M 171.617188 166.214844 C 168.679688 166.214844 165.285156 165.789062 161.375 164.941406 C 160.347656 164.722656 159.691406 163.707031 159.914062 162.675781 C 160.136719 161.644531 161.152344 160.992188 162.183594 161.214844 C 170.871094 163.089844 176.648438 162.730469 179.851562 160.113281 C 182.25 158.148438 183.464844 154.675781 183.550781 149.507812 L 122.492188 114.253906 C 121.578125 113.726562 121.265625 112.5625 121.792969 111.648438 C 122.320312 110.738281 123.488281 110.421875 124.398438 110.949219 L 186.414062 146.753906 C 186.996094 147.089844 187.359375 147.710938 187.367188 148.382812 C 187.457031 155.386719 185.789062 160.1875 182.269531 163.066406 C 179.695312 165.171875 176.214844 166.214844 171.617188 166.214844 " fill-opacity="1" fill-rule="nonzero"/><path fill="#eeedde" d="M 172.03125 264.496094 C 168.980469 264.496094 165.417969 264.046875 161.277344 263.152344 C 160.25 262.929688 159.59375 261.914062 159.816406 260.882812 C 160.039062 259.851562 161.054688 259.199219 162.085938 259.421875 C 171.058594 261.359375 176.9375 261.0625 180.054688 258.511719 C 182.476562 256.535156 183.621094 252.871094 183.550781 247.320312 L 183.550781 148.40625 C 183.550781 147.351562 184.40625 146.496094 185.460938 146.496094 C 186.515625 146.496094 187.367188 147.351562 187.367188 148.40625 L 187.367188 247.296875 C 187.453125 254.0625 185.851562 258.703125 182.46875 261.46875 C 179.996094 263.492188 176.585938 264.496094 172.03125 264.496094 " fill-opacity="1" fill-rule="nonzero"/><path fill="#eeedde" d="M 173.570312 157.289062 C 173.25 157.289062 172.921875 157.210938 172.625 157.039062 L 114.90625 123.976562 C 113.992188 123.449219 113.675781 122.285156 114.199219 121.371094 C 114.722656 120.457031 115.886719 120.136719 116.804688 120.664062 L 174.519531 153.726562 C 175.4375 154.25 175.753906 155.417969 175.230469 156.332031 C 174.875 156.945312 174.230469 157.289062 173.570312 157.289062 " fill-opacity="1" fill-rule="nonzero"/><g clip-path="url(#b5ce23d4df)"><path fill="#eeedde" d="M 196.445312 151.996094 C 193.507812 151.996094 190.113281 151.570312 186.203125 150.726562 C 185.175781 150.503906 184.519531 149.488281 184.742188 148.460938 C 184.964844 147.429688 185.980469 146.773438 187.011719 146.996094 C 195.699219 148.875 201.476562 148.511719 204.679688 145.894531 C 207.078125 143.933594 208.292969 140.457031 208.378906 135.289062 L 147.320312 100.039062 C 146.40625 99.511719 146.09375 98.34375 146.621094 97.433594 C 147.148438 96.519531 148.316406 96.207031 149.226562 96.734375 L 211.242188 132.539062 C 211.828125 132.875 212.1875 133.492188 212.199219 134.164062 C 212.285156 141.167969 210.617188 145.972656 207.097656 148.851562 C 204.523438 150.953125 201.046875 151.996094 196.445312 151.996094 " fill-opacity="1" fill-rule="nonzero"/></g><g clip-path="url(#aa14124010)"><path fill="#eeedde" d="M 196.859375 250.277344 C 193.808594 250.277344 190.246094 249.828125 186.109375 248.933594 C 185.078125 248.714844 184.421875 247.699219 184.644531 246.667969 C 184.867188 245.636719 185.882812 244.984375 186.914062 245.207031 C 195.886719 247.144531 201.765625 246.847656 204.882812 244.296875 C 207.308594 242.316406 208.449219 238.65625 208.382812 233.105469 L 208.382812 134.1875 C 208.382812 133.136719 209.234375 132.28125 210.289062 132.28125 C 211.34375 132.28125 212.199219 133.136719 212.199219 134.1875 L 212.199219 233.082031 C 212.28125 239.84375 210.679688 244.488281 207.300781 247.253906 C 204.824219 249.273438 201.414062 250.277344 196.859375 250.277344 " fill-opacity="1" fill-rule="nonzero"/></g><path fill="#eeedde" d="M 198.398438 143.074219 C 198.078125 143.074219 197.753906 142.992188 197.453125 142.820312 L 139.734375 109.757812 C 138.820312 109.234375 138.503906 108.066406 139.027344 107.152344 C 139.550781 106.242188 140.714844 105.921875 141.632812 106.449219 L 199.347656 139.511719 C 200.265625 140.035156 200.582031 141.199219 200.058594 142.113281 C 199.703125 142.730469 199.0625 143.074219 198.398438 143.074219 " fill-opacity="1" fill-rule="nonzero"/></svg>